<svg width="1389" height="803" viewBox="0 0 1389 803" fill="none" xmlns="http://www.w3.org/2000/svg">
<circle cx="205" cy="433" r="1" fill="#6852D6"/>
<circle cx="270" cy="241" r="1" fill="#B15324"/>
<circle cx="94" cy="299" r="1" fill="#B15324"/>
<circle cx="154" cy="420" r="1" fill="#B15324"/>
<circle cx="35" cy="684" r="1" fill="#B15324"/>
<circle cx="1359" cy="182" r="1" fill="#B15324"/>
<circle cx="359.5" cy="405.5" r="1.5" fill="#45368D"/>
<circle cx="292.5" cy="536.5" r="1.5" fill="#45368D"/>
<circle cx="53" cy="542" r="1" fill="#6852D6"/>
<circle cx="4.5" cy="361.5" r="1.5" fill="#6852D6"/>
<circle opacity="0.5" cx="173.5" cy="619.5" r="1.5" fill="#6852D6"/>
<circle cx="364" cy="627" r="1" fill="#6852D6"/>
<circle cx="1.5" cy="39.5" r="1.5" fill="#6852D6"/>
<circle cx="188.5" cy="330.5" r="1.5" fill="#6852D6"/>
<circle cx="303.5" cy="222.5" r="1.5" fill="#6852D6"/>
<circle cx="90" cy="166" r="1" fill="#6852D6"/>
<circle cx="204" cy="80" r="1" fill="#6852D6"/>
<circle cx="1075.5" cy="398.5" r="1.5" fill="#B15324"/>
<circle cx="1115.5" cy="561.5" r="1.5" fill="#B15324"/>
<circle cx="891.5" cy="469.5" r="1.5" fill="#B15324"/>
<circle cx="1200" cy="316" r="1" fill="#6852D6"/>
<circle cx="1052.5" cy="286.5" r="1.5" fill="#6852D6"/>
<circle opacity="0.5" cx="1099.5" cy="266.5" r="1.5" fill="#6852D6"/>
<circle cx="1316.5" cy="196.5" r="1.5" fill="#6852D6"/>
<circle cx="1023.5" cy="1.5" r="1.5" fill="#6852D6"/>
<circle cx="1128" cy="120" r="1" fill="#6852D6"/>
<circle cx="1271.5" cy="18.5" r="1.5" fill="#6852D6"/>
<circle opacity="0.5" cx="1316.5" cy="333.5" r="1.5" fill="#6852D6"/>
<circle cx="1268" cy="482" r="1" fill="#6852D6"/>
<circle cx="1334.5" cy="564.5" r="1.5" fill="#6852D6"/>
<circle cx="1203.5" cy="773.5" r="1.5" fill="#6852D6"/>
<circle cx="953" cy="611" r="1" fill="#6852D6"/>
<circle cx="1319" cy="691" r="1" fill="#6852D6"/>
<circle cx="1388" cy="653" r="1" fill="#6852D6"/>
<circle cx="1322" cy="802" r="1" fill="#45368D"/>
</svg>
